<?xml version="1.0" encoding="UTF-8" standalone="no"?>
<!DOCTYPE svg PUBLIC "-//W3C//DTD SVG 1.1//EN" "http://www.w3.org/Graphics/SVG/1.1/DTD/svg11.dtd">
<svg width="100%" height="100%" viewBox="0 0 512 512" version="1.1" xmlns="http://www.w3.org/2000/svg" xmlns:xlink="http://www.w3.org/1999/xlink" xml:space="preserve" xmlns:serif="http://www.serif.com/" style="fill-rule:evenodd;clip-rule:evenodd;stroke-linejoin:round;stroke-miterlimit:2;">
    <g id="terminal" transform="matrix(1,0,0,1,-1.13687e-13,-43)">
        <g id="terminal-window" serif:id="terminal window">
            <g transform="matrix(1.10583,0,0,1.02611,-36.4924,-11.3838)">
                <path d="M496,84.375C496,67.059 482.955,53 466.887,53L62.113,53C46.045,53 33,67.059 33,84.375L33,404.625C33,421.941 46.045,436 62.113,436L466.887,436C482.955,436 496,421.941 496,404.625L496,84.375Z" style="fill:rgb(55,50,73);"/>
            </g>
            <g transform="matrix(1.10583,0,0,1.02611,-36.4924,-11.3838)">
                <clipPath id="_clip1">
                    <rect x="33" y="53" width="463" height="66.27"/>
                </clipPath>
                <g clip-path="url(#_clip1)">
                    <path d="M496,84.375C496,67.059 482.955,53 466.887,53L62.113,53C46.045,53 33,67.059 33,84.375L33,404.625C33,421.941 46.045,436 62.113,436L466.887,436C482.955,436 496,421.941 496,404.625L496,84.375Z" style="fill:rgb(115,79,250);"/>
                </g>
            </g>
            <g transform="matrix(1,0,0,1,-24,44)">
                <circle cx="59" cy="33" r="17" style="fill:rgb(250,79,131);"/>
            </g>
            <g transform="matrix(1,0,0,1,26,44)">
                <circle cx="59" cy="33" r="17" style="fill:rgb(250,199,79);"/>
            </g>
            <g transform="matrix(1,0,0,1,76,44)">
                <circle cx="59" cy="33" r="17" style="fill:rgb(160,250,79);"/>
            </g>
        </g>
        <g id="output">
            <g transform="matrix(0.41,0,0,1,9.62,123)">
                <path d="M118,20.75C118,17.576 111.716,15 103.976,15L32.024,15C24.284,15 18,17.576 18,20.75L18,32.25C18,35.424 24.284,38 32.024,38L103.976,38C111.716,38 118,35.424 118,32.25L118,20.75Z" style="fill:rgb(181,79,250);"/>
            </g>
            <g transform="matrix(1,0,0,1,60,123)">
                <path d="M118,20.75C118,17.576 115.424,15 112.25,15L23.75,15C20.576,15 18,17.576 18,20.75L18,32.25C18,35.424 20.576,38 23.75,38L112.25,38C115.424,38 118,35.424 118,32.25L118,20.75Z" style="fill:rgb(153,50,175);"/>
            </g>
            <g transform="matrix(2.16,0,0,1,159.12,123)">
                <path d="M118,20.75C118,17.576 116.807,15 115.338,15L20.662,15C19.193,15 18,17.576 18,20.75L18,32.25C18,35.424 19.193,38 20.662,38L115.338,38C116.807,38 118,35.424 118,32.25L118,20.75Z" style="fill:rgb(234,79,250);"/>
            </g>
            <g transform="matrix(0.41,0,0,1,9.62,168)">
                <path d="M118,20.75C118,17.576 111.716,15 103.976,15L32.024,15C24.284,15 18,17.576 18,20.75L18,32.25C18,35.424 24.284,38 32.024,38L103.976,38C111.716,38 118,35.424 118,32.25L118,20.75Z" style="fill:rgb(250,79,220);"/>
            </g>
            <g transform="matrix(1,0,0,1,60,168)">
                <path d="M118,20.75C118,17.576 115.424,15 112.25,15L23.75,15C20.576,15 18,17.576 18,20.75L18,32.25C18,35.424 20.576,38 23.75,38L112.25,38C115.424,38 118,35.424 118,32.25L118,20.75Z" style="fill:rgb(87,161,20);"/>
            </g>
            <g transform="matrix(0.7,0,0,1,185.4,168)">
                <path d="M118,20.75C118,17.576 114.319,15 109.786,15L26.214,15C21.681,15 18,17.576 18,20.75L18,32.25C18,35.424 21.681,38 26.214,38L109.786,38C114.319,38 118,35.424 118,32.25L118,20.75Z" style="fill:rgb(160,250,79);"/>
            </g>
            <g transform="matrix(0.41,0,0,1,9.62,213)">
                <path d="M118,20.75C118,17.576 111.716,15 103.976,15L32.024,15C24.284,15 18,17.576 18,20.75L18,32.25C18,35.424 24.284,38 32.024,38L103.976,38C111.716,38 118,35.424 118,32.25L118,20.75Z" style="fill:rgb(250,79,79);"/>
            </g>
            <g transform="matrix(1,0,0,1,60,213)">
                <path d="M118,20.75C118,17.576 115.424,15 112.25,15L23.75,15C20.576,15 18,17.576 18,20.75L18,32.25C18,35.424 20.576,38 23.75,38L112.25,38C115.424,38 118,35.424 118,32.25L118,20.75Z" style="fill:rgb(87,161,20);"/>
            </g>
            <g transform="matrix(1.2,0,0,1,176.4,213)">
                <path d="M118,20.75C118,17.576 115.853,15 113.208,15L22.792,15C20.147,15 18,17.576 18,20.75L18,32.25C18,35.424 20.147,38 22.792,38L113.208,38C115.853,38 118,35.424 118,32.25L118,20.75Z" style="fill:rgb(160,250,79);"/>
            </g>
            <g transform="matrix(0.41,0,0,1,9.62,258)">
                <path d="M118,20.75C118,17.576 111.716,15 103.976,15L32.024,15C24.284,15 18,17.576 18,20.75L18,32.25C18,35.424 24.284,38 32.024,38L103.976,38C111.716,38 118,35.424 118,32.25L118,20.75Z" style="fill:rgb(250,174,79);"/>
            </g>
            <g transform="matrix(0.56,0,0,1,67.92,258)">
                <path d="M118,20.75C118,17.576 113.399,15 107.732,15L28.268,15C22.601,15 18,17.576 18,20.75L18,32.25C18,35.424 22.601,38 28.268,38L107.732,38C113.399,38 118,35.424 118,32.25L118,20.75Z" style="fill:rgb(79,152,250);"/>
            </g>
            <g transform="matrix(1,0,0,1,233,258)">
                <path d="M118,20.75C118,17.576 115.424,15 112.25,15L23.75,15C20.576,15 18,17.576 18,20.75L18,32.25C18,35.424 20.576,38 23.75,38L112.25,38C115.424,38 118,35.424 118,32.25L118,20.75Z" style="fill:rgb(79,244,250);"/>
            </g>
            <g transform="matrix(0.77,0,0,1,140.14,258)">
                <path d="M118,20.75C118,17.576 114.654,15 110.532,15L25.468,15C21.346,15 18,17.576 18,20.75L18,32.25C18,35.424 21.346,38 25.468,38L110.532,38C114.654,38 118,35.424 118,32.25L118,20.75Z" style="fill:rgb(79,244,250);"/>
            </g>
        </g>
    </g>
    <g transform="matrix(1.45099,0,0,1.45099,256,485.3)">
        <g transform="matrix(1,0,0,1,-107.8,-140.8)">
            <g>
                <path d="M207.3,44.6C200.6,30.9 184.4,43 180.3,38.7C159.3,17.1 133.9,11.7 114,10.7L103,10.7C83,11.2 57.6,17 36.7,38.7C32.6,43 16.3,30.9 9.7,44.6C2,60.6 25.4,62.2 24.2,69.3C21.9,82.1 23.4,101.1 25.2,119.8C28,151.5 4.3,227.4 53.6,257.9C62.9,263.7 88,266.9 109.8,267.4L110,267.4C131.8,266.9 153.9,263.7 163.2,257.9C212.6,227.4 188.9,151.5 191.8,119.8C193.5,101.1 195,82.1 192.8,69.3C191.6,62.2 215,60.5 207.3,44.6Z" style="fill:rgb(140,197,231);fill-rule:nonzero;"/>
                <g>
                    <path d="M143.2,54.3C109.8,58.2 114.3,93 127.2,104.3C151.2,125.3 176.2,104.3 173.4,83.1C170.9,62.7 153.6,53.1 143.2,54.3Z" style="fill:rgb(224,222,220);fill-rule:nonzero;"/>
                    <circle cx="145.5" cy="84.3" r="11.4" style="fill:rgb(17,18,18);"/>
                    <circle cx="142.5" cy="79.4" r="3.6" style="fill:white;"/>
                </g>
                <g>
                    <path d="M108.5,107C92.5,109.4 86.8,114 88,121.2C90,133 127.7,131.7 128.9,121.8C129.9,113.3 114.8,106.1 108.5,107Z" style="fill:rgb(184,147,127);fill-rule:nonzero;"/>
                    <path d="M98.2,111.8C95.5,121.6 119.9,120.1 119.3,113.8C119,110.1 115.7,105.4 107,105.6C103.6,105.7 99.4,107.2 98.2,111.8Z" style="fill-rule:nonzero;"/>
                    <path d="M99,127.7C98.1,128.1 96.6,137.9 101.2,138.4C104.3,138.7 112.8,139.7 114.8,138.4C118.7,135.9 118.3,129.9 116.1,128.4C112.4,126 100,127.2 99,127.7Z" style="fill:rgb(224,222,220);fill-rule:nonzero;"/>
                </g>
                <g>
                    <path d="M73.6,54.3C107,58.2 102.5,93 89.6,104.3C65.6,125.3 40.6,104.3 43.4,83.1C46,62.7 63.3,53.1 73.6,54.3Z" style="fill:rgb(224,222,220);fill-rule:nonzero;"/>
                    <circle cx="71.4" cy="84.3" r="11.4" style="fill:rgb(17,18,18);"/>
                    <circle cx="74.4" cy="79.4" r="3.6" style="fill:white;"/>
                </g>
                <path d="M188.6,47C188,49.1 190.7,48.8 191.7,55.3C192.1,57.7 200.7,51.8 197.2,47.5C194.3,43.9 189.1,44.9 188.6,47Z" style="fill:rgb(60,137,191);fill-rule:nonzero;"/>
                <path d="M28.3,47C28.9,49.1 26.2,48.8 25.2,55.3C24.8,57.7 16.2,51.8 19.7,47.5C22.5,43.9 27.7,44.9 28.3,47Z" style="fill:rgb(60,137,191);fill-rule:nonzero;"/>
            </g>
        </g>
    </g>
</svg>
